<?xml version="1.0" standalone="no"?>
<!DOCTYPE svg PUBLIC "-//W3C//DTD SVG 20010904//EN"
 "http://www.w3.org/TR/2001/REC-SVG-20010904/DTD/svg10.dtd">
<svg version="1.0" xmlns="http://www.w3.org/2000/svg"
 width="700.000000pt" height="700.000000pt" viewBox="0 0 700.000000 700.000000"
 preserveAspectRatio="xMidYMid meet">
<metadata>
Created by potrace 1.14, written by Peter Selinger 2001-2017
</metadata>
<g transform="translate(0.000000,700.000000) scale(0.100000,-0.100000)"
fill="#000000" stroke="none">
<path d="M3392 6419 c-75 -29 -155 -110 -194 -196 -25 -55 -32 -85 -36 -160
l-5 -91 -34 -7 c-66 -12 -218 -66 -303 -107 -328 -158 -580 -432 -725 -787
-48 -117 -104 -329 -120 -451 -4 -30 -9 -63 -11 -72 -1 -10 -6 -64 -9 -120 -3
-57 -8 -130 -10 -163 -4 -72 7 -123 35 -153 22 -24 22 -31 -1 -257 -27 -265
-100 -575 -150 -632 -15 -17 -30 -40 -32 -50 -94 -325 -160 -456 -337 -668
-82 -98 -161 -178 -307 -313 -70 -66 -117 -119 -129 -144 -16 -36 -18 -71 -18
-307 0 -246 2 -268 20 -296 50 -77 118 -106 377 -160 177 -37 298 -59 487 -90
133 -22 388 -57 505 -69 28 -3 88 -10 135 -15 47 -6 123 -13 170 -16 47 -3
101 -8 120 -10 19 -2 94 -7 165 -10 72 -4 159 -8 195 -11 91 -6 597 -5 700 1
47 2 130 7 185 10 141 8 572 46 668 60 46 6 186 26 227 31 216 30 658 113 848
160 174 43 260 99 302 197 21 48 23 66 23 262 1 268 8 254 -191 407 -247 191
-459 432 -566 644 -19 38 -55 137 -80 219 -40 132 -50 154 -82 184 -33 30 -39
45 -64 150 -35 142 -76 391 -94 566 -12 119 -12 132 3 150 49 59 50 121 10
410 -72 513 -236 885 -500 1140 -188 181 -370 269 -644 311 -22 3 -41 7 -42 7
-1 1 -4 38 -7 82 -11 165 -84 288 -211 353 -70 36 -197 41 -273 11z m246 -135
c57 -36 94 -101 95 -171 1 -99 14 -93 -218 -93 -202 0 -203 0 -209 23 -30 113
33 233 142 268 51 16 139 4 190 -27z"/>
<path d="M815 5339 c-103 -28 -327 -376 -440 -684 -46 -123 -98 -325 -122
-465 -18 -115 -25 -479 -10 -600 39 -315 179 -646 382 -900 77 -97 108 -120
159 -120 103 0 154 124 83 200 -75 81 -184 244 -245 365 -60 121 -120 316
-136 443 -4 23 -9 61 -12 85 -8 54 -8 305 0 377 48 418 219 847 430 1074 59
63 74 104 56 152 -11 30 -55 73 -74 75 -6 0 -18 2 -26 3 -8 2 -29 -1 -45 -5z"/>
<path d="M6290 5323 c-31 -11 -70 -58 -76 -90 -9 -49 0 -72 57 -138 203 -237
336 -549 366 -862 13 -135 7 -363 -12 -478 -68 -400 -220 -755 -413 -968 -59
-64 -66 -80 -64 -136 3 -60 72 -109 138 -97 104 20 318 339 438 654 63 165
122 394 140 545 3 26 9 68 12 95 9 64 9 301 0 387 -36 368 -170 699 -396 979
-84 104 -130 131 -190 109z"/>
<path d="M2972 949 c-33 -13 -63 -87 -63 -159 -1 -160 146 -302 381 -368 138
-39 340 -40 483 -3 290 76 453 285 369 474 -27 62 -49 71 -125 58 -34 -6 -87
-13 -117 -16 -30 -3 -66 -8 -80 -11 -43 -10 -431 -12 -520 -3 -155 15 -185 18
-217 24 -75 12 -89 13 -111 4z"/>
</g>
</svg>
